#!OML:ASF X:\für Bonn\!DataBase\2005_08_11_Bastian_Final\c3d\Bastian.ASF
:FULLY-SPECIFIED
:DEGREES
91
root 4.49057 17.7151 -5.42261 129.663 20.7701 -193.953
lowerback 40.6991 -2.6065 -3.94983
upperback 20.306 3.56465 -10.0659
thorax 3.46253 6.07354 -9.65659
lowerneck -11.0115 -4.3382 -4.0006
upperneck 0.242903 -5.00401 -0.65958
head 2.05157 -2.43111 0.221361
rclavicle 2.06736e-014 7.15625e-015
rhumerus -17.1165 40.3984 -97.5503
rradius 106.286
rwrist 2.42024
rhand -11.0608 6.14277
rfingers 7.12502
rthumb 14.9619 -23.2968
lclavicle 2.06736e-014 7.15625e-015
lhumerus -17.6394 -14.6449 81.5022
lradius 125.625
lwrist 36.1705
lhand -10.9729 -22.6337
lfingers 7.12502
lthumb 15.0466 6.79949
rfemur 35.7883 8.53282 15.1999
rtibia 36.2134
rfoot 1.32963 11.0275
rtoes 13.6479
lfemur -85.5658 30.1185 -17.16
ltibia 80.7597
lfoot 16.8363 -7.18253
ltoes -28.6935
92
root 4.48936 17.6812 -5.43904 130.639 20.2733 -193.59
lowerback 40.2021 -2.82799 -3.79449
upperback 20.0411 3.09643 -9.96972
thorax 3.21584 5.7106 -9.48633
lowerneck -11.1758 -4.26435 -4.25712
upperneck 0.326227 -4.86176 -0.609502
head 2.1165 -2.36027 0.284398
rclavicle 3.53837e-014 -4.13472e-014
rhumerus -19.3165 40.1825 -98.4511
rradius 106.548
rwrist 2.62786
rhand -10.9211 6.54588
rfingers 7.12502
rthumb 15.0965 -22.8836
lclavicle 3.53837e-014 -4.13472e-014
lhumerus -17.4361 -14.5734 81.5393
lradius 125.111
lwrist 36.9136
lhand -10.4366 -22.3144
lfingers 7.12502
lthumb 15.5632 7.07941
rfemur 35.0643 7.90328 15.0359
rtibia 36.5826
rfoot 0.114883 10.5667
rtoes 12.7636
lfemur -85.461 29.8455 -18.6839
ltibia 83.2443
lfoot 14.6373 -7.43798
ltoes -30.384
93
root 4.48745 17.65 -5.4522 131.663 19.8254 -193.217
lowerback 39.6874 -3.02244 -3.6035
upperback 19.7508 2.6553 -9.82342
thorax 2.95326 5.35192 -9.2894
lowerneck -11.3043 -4.20641 -4.5928
upperneck 0.321022 -4.73558 -0.447213
head 2.15113 -2.29209 0.398119
rclavicle -9.54166e-015 -5.56597e-015
rhumerus -21.7098 39.9143 -99.3496
rradius 106.906
rwrist 2.7731
rhand -10.7689 6.95712
rfingers 7.12502
rthumb 15.2431 -22.4613
lclavicle -9.54166e-015 -5.56597e-015
lhumerus -17.2811 -14.6039 81.6977
lradius 124.592
lwrist 37.5002
lhand -9.97461 -22.0422
lfingers 7.12502
lthumb 16.0081 7.31639
rfemur 34.2647 7.24261 14.897
rtibia 36.9548
rfoot -1.08553 10.134
rtoes 11.5262
lfemur -85.0857 29.5416 -20.0632
ltibia 85.5243
lfoot 12.0736 -7.42228
ltoes -32.532
94
root 4.48535 17.6208 -5.46335 132.799 19.4621 -192.814
lowerback 39.0784 -3.19326 -3.34583
upperback 19.4379 2.24283 -9.63797
thorax 2.70139 4.99726 -9.0917
lowerneck -11.3718 -4.15306 -4.85951
upperneck 0.171115 -4.62251 -0.333082
head 2.12231 -2.22668 0.486971
rclavicle 2.38542e-014 2.22639e-014
rhumerus -24.0897 39.5769 -100.2
rradius 107.266
rwrist 2.80419
rhand -10.5985 7.35174
rfingers 7.12502
rthumb 15.4072 -22.0541
lclavicle 2.38542e-014 2.22639e-014
lhumerus -17.1485 -14.7292 81.9293
lradius 124.047
lwrist 37.8386
lhand -9.60061 -21.8227
lfingers 7.12502
lthumb 16.3682 7.5066
rfemur 33.34 6.56993 14.8272
rtibia 37.3123
rfoot -2.27874 9.71332
rtoes 10.1296
lfemur -84.5133 29.2803 -21.2737
ltibia 87.654
lfoot 9.42743 -7.09505
ltoes -34.3012
95
root 4.48506 17.5969 -5.47092 134.065 19.1828 -192.354
lowerback 38.3747 -3.33434 -3.04474
upperback 19.0877 1.84814 -9.39308
thorax 2.44491 4.63321 -8.85723
lowerneck -11.3506 -4.09596 -5.17101
upperneck -0.108423 -4.50603 -0.143994
head 2.03716 -2.15368 0.610347
rclavicle -3.33958e-014 7.95139e-014
rhumerus -26.5564 39.1968 -101.056
rradius 107.667
rwrist 2.72516
rhand -10.4266 7.69178
rfingers 7.12502
rthumb 15.5728 -21.7013
lclavicle -3.33958e-014 7.95139e-014
lhumerus -17.0946 -14.9137 82.2594
lradius 123.494
lwrist 37.9304
lhand -9.33974 -21.7504
lfingers 7.12502
lthumb 16.6194 7.55804
rfemur 32.2876 5.89291 14.8886
rtibia 37.6223
rfoot -3.37511 9.21807
rtoes 8.84132
lfemur -83.8041 29.0867 -22.2615
ltibia 89.6608
lfoot 7.13226 -6.79354
ltoes -36.3374
